<?xml version="1.0" encoding="utf-8"?>
<!-- Generator: Adobe Illustrator 16.0.0, SVG Export Plug-In . SVG Version: 6.00 Build 0)  -->
<!DOCTYPE svg PUBLIC "-//W3C//DTD SVG 1.1//EN" "http://www.w3.org/Graphics/SVG/1.1/DTD/svg11.dtd">
<svg version="1.1" id="Layer_2" xmlns="http://www.w3.org/2000/svg" xmlns:xlink="http://www.w3.org/1999/xlink" x="0px" y="0px"
	 width="150px" height="150px" viewBox="0 0 150 150" enable-background="new 0 0 150 150" xml:space="preserve">
<g>
	<path fill-rule="evenodd" clip-rule="evenodd" d="M66.375,90.601c-5.698-10.329-11.25-20.743-17.152-30.954
		c-3.297-5.705,0.395-11.974,6.232-12.853c3.338-0.502,6.454,0.943,8.177,4.027c3.28,5.871,6.506,11.771,9.758,17.658
		c0.222,0.402,0.472,0.79,0.792,1.323c3.147-3.393,6.813-4.407,11.046-2.643c3.299-4.73,7.875-5.355,11.355-2.904
		c1.853-3.661,4.996-5.008,8.812-4.154c1.564,0.351,3.439,1.512,4.205,2.856c3.936,6.913,7.785,13.896,11.212,21.07
		c2.605,5.455,3.47,11.373,2.415,17.45c-0.746,4.303-2.584,8.106-5.501,11.309c-5.573,6.117-12.505,10.029-20.573,11.724
		c-7.56,1.589-14.285-0.824-20.263-5.302c-8.788-6.582-17.44-13.347-26.105-20.091c-2.918-2.271-3.902-5.16-2.817-7.524
		c1.356-2.958,5.54-5.144,8.931-4.385c2.107,0.471,4.132,1.35,6.159,2.133c1.078,0.416,2.084,1.018,3.123,1.534
		C66.244,90.785,66.31,90.693,66.375,90.601z M118.97,96.993c0.003-4.147-0.867-8.156-2.697-11.815
		c-3.268-6.537-6.807-12.938-10.281-19.369c-0.86-1.591-2.308-1.895-3.904-1.019c-1.497,0.822-1.774,1.983-0.885,3.734
		c0.187,0.368,0.433,0.713,0.569,1.099c0.457,1.289,0.154,2.349-1.109,2.979c-1.168,0.584-2.206,0.322-2.936-0.766
		c-0.523-0.782-0.943-1.634-1.405-2.457c-1.254-2.237-3.009-2.8-5.138-1.647c-2.13,1.153-2.636,2.995-1.433,5.217
		c0.281,0.519,0.583,1.027,0.841,1.556c0.726,1.489,0.433,2.646-0.825,3.335c-1.278,0.701-2.376,0.353-3.24-1.109
		c-0.811-1.37-1.521-2.801-2.34-4.166c-1.104-1.837-3.061-2.231-5.065-1.084c-1.863,1.066-2.457,2.775-1.506,4.626
		c0.917,1.783,1.949,3.506,2.893,5.275c0.859,1.609,0.617,2.762-0.674,3.514c-1.343,0.783-2.496,0.36-3.442-1.332
		c-1.67-2.985-3.309-5.989-4.961-8.984c-3.902-7.076-7.796-14.157-11.714-21.225c-1.111-2.005-2.695-2.499-4.755-1.569
		c-2.515,1.134-3.1,2.83-1.757,5.271c6.91,12.557,13.827,25.111,20.761,37.656c0.666,1.204,1.202,2.387,0.117,3.572
		c-1.179,1.288-2.433,0.695-3.693,0.031c-3.705-1.95-7.367-3.997-11.173-5.729c-1.4-0.638-3.243-0.922-4.727-0.612
		c-2.219,0.463-2.419,2.102-0.637,3.528c2.626,2.103,5.298,4.149,7.967,6.199c6.365,4.89,12.636,9.911,19.145,14.603
		c4.939,3.559,10.543,4.976,16.616,3.35c5.313-1.422,10.169-3.804,14.33-7.427C116.514,108.221,118.966,103.159,118.97,96.993z"/>
	<path fill-rule="evenodd" clip-rule="evenodd" d="M71.962,47.826c-0.49-0.475-1.591-1.062-1.793-1.872
		c-0.209-0.837,0.15-2.345,0.789-2.774c2.688-1.804,5.532-3.392,8.405-4.895c1.198-0.626,2.477-0.289,3.241,0.966
		c0.742,1.216,0.675,2.564-0.52,3.317c-2.841,1.791-5.808,3.382-8.736,5.032C73.109,47.736,72.774,47.702,71.962,47.826z"/>
	<path fill-rule="evenodd" clip-rule="evenodd" d="M29.672,44.842c2.765,0.757,6.028,1.548,9.216,2.574
		c1.34,0.431,1.736,1.741,1.336,3.088c-0.384,1.289-1.409,2.05-2.698,1.756c-3.266-0.744-6.519-1.584-9.717-2.579
		c-1.373-0.426-1.704-1.764-1.331-3.09C26.842,45.293,27.826,44.723,29.672,44.842z"/>
	<path fill-rule="evenodd" clip-rule="evenodd" d="M61.69,38.912c-2.32,0.008-3.622-1.433-3.231-3.063
		c0.726-3.032,1.531-6.048,2.436-9.031c0.426-1.407,1.571-2.045,3.062-1.746c1.381,0.278,2.262,1.615,1.907,3.102
		c-0.708,2.975-1.432,5.958-2.394,8.855C63.179,37.907,62.082,38.518,61.69,38.912z"/>
	<path fill-rule="evenodd" clip-rule="evenodd" d="M42.209,64.624c-0.304,0.365-0.753,1.253-1.475,1.705
		c-2.449,1.53-4.978,2.937-7.51,4.328c-1.524,0.838-2.94,0.485-3.714-0.796c-0.799-1.322-0.381-2.844,1.148-3.75
		c2.486-1.472,4.984-2.93,7.536-4.283C40.197,60.765,42.277,61.99,42.209,64.624z"/>
	<path fill-rule="evenodd" clip-rule="evenodd" d="M42.594,27.849c0.355,0.283,1.262,0.708,1.717,1.421
		c1.551,2.431,2.978,4.944,4.382,7.464c0.828,1.486,0.438,2.955-0.841,3.702c-1.282,0.75-2.772,0.384-3.646-1.049
		c-1.501-2.464-2.965-4.954-4.344-7.488C38.781,29.912,39.964,27.807,42.594,27.849z"/>
</g>
</svg>
